<svg width="64" height="63" viewBox="0 0 64 63" fill="none" xmlns="http://www.w3.org/2000/svg">
<g id="logo-instagram 2">
<g id="Group">
<path id="Vector" d="M32.1943 5.6222C40.5381 5.6222 41.5262 5.65345 44.8223 5.80375C46.8042 5.828 48.7671 6.1919 50.6259 6.87965C51.9739 7.3995 53.1981 8.19586 54.2197 9.21746C55.2413 10.2391 56.0377 11.4632 56.5575 12.8112C57.2453 14.67 57.6092 16.633 57.6334 18.6148C57.7822 21.911 57.815 22.8991 57.815 31.2429C57.815 39.5867 57.7837 40.5748 57.6334 43.8709C57.6092 45.8527 57.2453 47.8157 56.5575 49.6745C56.0377 51.0225 55.2413 52.2467 54.2197 53.2683C53.1981 54.2899 51.9739 55.0863 50.6259 55.6061C48.7671 56.2939 46.8042 56.6578 44.8223 56.682C41.5277 56.8308 40.5396 56.8636 32.1943 56.8636C23.849 56.8636 22.8609 56.8323 19.5662 56.682C17.5844 56.6578 15.6214 56.2939 13.7626 55.6061C12.4146 55.0863 11.1904 54.2899 10.1689 53.2683C9.14726 52.2467 8.3509 51.0225 7.83104 49.6745C7.1433 47.8157 6.77939 45.8527 6.75514 43.8709C6.60633 40.5748 6.57359 39.5867 6.57359 31.2429C6.57359 22.8991 6.60484 21.911 6.75514 18.6148C6.77939 16.633 7.1433 14.67 7.83104 12.8112C8.3509 11.4632 9.14726 10.2391 10.1689 9.21746C11.1904 8.19586 12.4146 7.3995 13.7626 6.87965C15.6214 6.1919 17.5844 5.828 19.5662 5.80375C22.8624 5.65494 23.8505 5.6222 32.1943 5.6222ZM32.1943 -0.00878906C23.7121 -0.00878906 22.6436 0.0269253 19.3103 0.178712C16.7166 0.230301 14.1504 0.721395 11.7209 1.6311C9.63685 2.41632 7.74918 3.64683 6.18966 5.23678C4.59828 6.79687 3.36672 8.68561 2.58101 10.771C1.6713 13.2005 1.18021 15.7667 1.12862 18.3604C0.979806 21.6907 0.944092 22.7592 0.944092 31.2414C0.944092 39.7236 0.979806 40.792 1.13159 44.1254C1.18318 46.7191 1.67428 49.2853 2.58398 51.7147C3.36882 53.7999 4.59936 55.6886 6.18966 57.249C7.75004 58.8393 9.63876 60.0698 11.7239 60.8547C14.1534 61.7644 16.7196 62.2555 19.3133 62.3071C22.6466 62.4559 23.7106 62.4946 32.1973 62.4946C40.6839 62.4946 41.7479 62.4588 45.0813 62.3071C47.675 62.2555 50.2411 61.7644 52.6706 60.8547C54.7459 60.0502 56.6304 58.8216 58.2037 57.2472C59.7771 55.6729 61.0045 53.7876 61.8076 51.7118C62.7173 49.2823 63.2084 46.7161 63.26 44.1224C63.4088 40.792 63.4445 39.7236 63.4445 31.2414C63.4445 22.7592 63.4088 21.6907 63.257 18.3574C63.2054 15.7637 62.7143 13.1975 61.8046 10.7681C61.0197 8.6829 59.7892 6.79419 58.1989 5.2338C56.6385 3.6435 54.7498 2.41296 52.6646 1.62813C50.2352 0.718418 47.669 0.227325 45.0753 0.175736C41.7449 0.0269255 40.6765 -0.00878906 32.1943 -0.00878906Z" fill="#EB9A3F"/>
<path id="Vector_2" d="M32.1996 15.21C29.0257 15.21 25.923 16.1511 23.284 17.9145C20.645 19.6778 18.5881 22.1841 17.3735 25.1165C16.1589 28.0488 15.8411 31.2755 16.4603 34.3884C17.0795 37.5014 18.6079 40.3608 20.8522 42.6051C23.0965 44.8494 25.9559 46.3778 29.0689 46.997C32.1818 47.6162 35.4085 47.2984 38.3408 46.0838C41.2732 44.8692 43.7795 42.8123 45.5428 40.1733C47.3062 37.5343 48.2474 34.4316 48.2474 31.2577C48.2474 27.0016 46.5566 22.9198 43.5471 19.9102C40.5376 16.9007 36.4558 15.21 32.1996 15.21ZM32.1996 41.6744C30.1394 41.6744 28.1254 41.0635 26.4124 39.9189C24.6994 38.7743 23.3643 37.1474 22.5758 35.244C21.7874 33.3406 21.5811 31.2461 21.9831 29.2255C22.385 27.2048 23.3771 25.3487 24.8339 23.8919C26.2907 22.4351 28.1468 21.443 30.1674 21.0411C32.1881 20.6392 34.2825 20.8455 36.186 21.6339C38.0894 22.4223 39.7162 23.7574 40.8608 25.4705C42.0054 27.1835 42.6164 29.1974 42.6164 31.2577C42.6164 34.0204 41.5189 36.6699 39.5654 38.6234C37.6119 40.5769 34.9623 41.6744 32.1996 41.6744Z" fill="#EB9A3F"/>
<path id="Vector_3" d="M48.8788 18.3155C50.9499 18.3155 52.6288 16.6365 52.6288 14.5655C52.6288 12.4944 50.9499 10.8154 48.8788 10.8154C46.8077 10.8154 45.1288 12.4944 45.1288 14.5655C45.1288 16.6365 46.8077 18.3155 48.8788 18.3155Z" fill="#EB9A3F"/>
</g>
</g>
</svg>
